<?xml version="1.0" encoding="utf-8"?>
<svg xmlns="http://www.w3.org/2000/svg">
  <defs>

    <symbol viewBox="0 0 1134 340" id="spotify">
      <title>Spotify</title>
      <path fill="var(--white)"
        d="M8 171c0 92 76 168 168 168s168-76 168-168S268 4 176 4 8 79 8 171zm230 78c-39-24-89-30-147-17-14 2-16-18-4-20 64-15 118-8 162 19 11 7 0 24-11 18zm17-45c-45-28-114-36-167-20-17 5-23-21-7-25 61-18 136-9 188 23 14 9 0 31-14 22zM80 133c-17 6-28-23-9-30 59-18 159-15 221 22 17 9 1 37-17 27-54-32-144-35-195-19zm379 91c-17 0-33-6-47-20-1 0-1 1-1 1l-16 19c-1 1-1 2 0 3 18 16 40 24 64 24 34 0 55-19 55-47 0-24-15-37-50-46-29-7-34-12-34-22s10-16 23-16 25 5 39 15c0 0 1 1 2 1s1-1 1-1l14-20c1-1 1-1 0-2-16-13-35-20-56-20-31 0-53 19-53 46 0 29 20 38 52 46 28 6 32 12 32 22 0 11-10 17-25 17zm95-77v-13c0-1-1-2-2-2h-26c-1 0-2 1-2 2v147c0 1 1 2 2 2h26c1 0 2-1 2-2v-46c10 11 21 16 36 16 27 0 54-21 54-61s-27-60-54-60c-15 0-26 5-36 17zm30 78c-18 0-31-15-31-35s13-34 31-34 30 14 30 34-12 35-30 35zm68-34c0 34 27 60 62 60s62-27 62-61-26-60-61-60-63 27-63 61zm30-1c0-20 13-34 32-34s33 15 33 35-13 34-32 34-33-15-33-35zm140-58v-29c0-1 0-2-1-2h-26c-1 0-2 1-2 2v29h-13c-1 0-2 1-2 2v22c0 1 1 2 2 2h13v58c0 23 11 35 34 35 9 0 18-2 25-6 1 0 1-1 1-2v-21c0-1 0-2-1-2h-2c-5 3-11 4-16 4-8 0-12-4-12-12v-54h30c1 0 2-1 2-2v-22c0-1-1-2-2-2h-30zm129-3c0-11 4-15 13-15 5 0 10 0 15 2h1s1-1 1-2V93c0-1 0-2-1-2-5-2-12-3-22-3-24 0-36 14-36 39v5h-13c-1 0-2 1-2 2v22c0 1 1 2 2 2h13v89c0 1 1 2 2 2h26c1 0 1-1 1-2v-89h25l37 89c-4 9-8 11-14 11-5 0-10-1-15-4h-1l-1 1-9 19c0 1 0 3 1 3 9 5 17 7 27 7 19 0 30-9 39-33l45-116v-2c0-1-1-1-2-1h-27c-1 0-1 1-1 2l-28 78-30-78c0-1-1-2-2-2h-44v-3zm-83 3c-1 0-2 1-2 2v113c0 1 1 2 2 2h26c1 0 1-1 1-2V134c0-1 0-2-1-2h-26zm-6-33c0 10 9 19 19 19s18-9 18-19-8-18-18-18-19 8-19 18zm245 69c10 0 19-8 19-18s-9-18-19-18-18 8-18 18 8 18 18 18zm0-34c9 0 17 7 17 16s-8 16-17 16-16-7-16-16 7-16 16-16zm4 18c3-1 5-3 5-6 0-4-4-6-8-6h-8v19h4v-6h4l4 6h5zm-3-9c2 0 4 1 4 3s-2 3-4 3h-4v-6h4z" />
    </symbol>

    <symbol fill="none" viewBox="0 0 24 24" stroke-width="1.5" stroke="currentColor" id="account">
      <path stroke-linecap="round" stroke-linejoin="round"
        d="M13.5 6H5.25A2.25 2.25 0 0 0 3 8.25v10.5A2.25 2.25 0 0 0 5.25 21h10.5A2.25 2.25 0 0 0 18 18.75V10.5m-10.5 6L21 3m0 0h-5.25M21 3v5.25" />
    </symbol>
    <symbol fill="none" viewBox="0 0 24 24" stroke-width="1.5" stroke="currentColor" id="profile">
      <path stroke-linecap="round" stroke-linejoin="round"
        d="M17.982 18.725A7.488 7.488 0 0 0 12 15.75a7.488 7.488 0 0 0-5.982 2.975m11.963 0a9 9 0 1 0-11.963 0m11.963 0A8.966 8.966 0 0 1 12 21a8.966 8.966 0 0 1-5.982-2.275M15 9.75a3 3 0 1 1-6 0 3 3 0 0 1 6 0Z" />
    </symbol>

    <symbol fill="none" viewBox="0 0 24 24" stroke-width="1.5" stroke="currentColor" id="settings">
      <path stroke-linecap="round" stroke-linejoin="round"
        d="M9.594 3.94c.09-.542.56-.94 1.11-.94h2.593c.55 0 1.02.398 1.11.94l.213 1.281c.063.374.313.686.645.87.074.04.147.083.22.127.325.196.72.257 1.075.124l1.217-.456a1.125 1.125 0 0 1 1.37.49l1.296 2.247a1.125 1.125 0 0 1-.26 1.431l-1.003.827c-.293.241-.438.613-.43.992a7.723 7.723 0 0 1 0 .255c-.008.378.137.75.43.991l1.004.827c.424.35.534.955.26 1.43l-1.298 2.247a1.125 1.125 0 0 1-1.369.491l-1.217-.456c-.355-.133-.75-.072-1.076.124a6.47 6.47 0 0 1-.22.128c-.331.183-.581.495-.644.869l-.213 1.281c-.09.543-.56.94-1.11.94h-2.594c-.55 0-1.019-.398-1.11-.94l-.213-1.281c-.062-.374-.312-.686-.644-.87a6.52 6.52 0 0 1-.22-.127c-.325-.196-.72-.257-1.076-.124l-1.217.456a1.125 1.125 0 0 1-1.369-.49l-1.297-2.247a1.125 1.125 0 0 1 .26-1.431l1.004-.827c.292-.24.437-.613.43-.991a6.932 6.932 0 0 1 0-.255c.007-.38-.138-.751-.43-.992l-1.004-.827a1.125 1.125 0 0 1-.26-1.43l1.297-2.247a1.125 1.125 0 0 1 1.37-.491l1.216.456c.356.133.751.072 1.076-.124.072-.044.146-.086.22-.128.332-.183.582-.495.644-.869l.214-1.28Z" />
      <path stroke-linecap="round" stroke-linejoin="round" d="M15 12a3 3 0 1 1-6 0 3 3 0 0 1 6 0Z" />
    </symbol>

    <symbol fill="none" viewBox="0 0 24 24" stroke-width="1.5" stroke="currentColor" id="logout">
      <path stroke-linecap="round" stroke-linejoin="round"
        d="M8.25 9V5.25A2.25 2.25 0 0 1 10.5 3h6a2.25 2.25 0 0 1 2.25 2.25v13.5A2.25 2.25 0 0 1 16.5 21h-6a2.25 2.25 0 0 1-2.25-2.25V15M12 9l3 3m0 0-3 3m3-3H2.25" />
    </symbol>

    <symbol fill="none" viewBox="0 0 24 24" stroke-width="1.5" stroke="currentColor" id="play">
      <path stroke-linecap="round" stroke-linejoin="round"
        d="M5.25 5.653c0-.856.917-1.398 1.667-.986l11.54 6.347a1.125 1.125 0 0 1 0 1.972l-11.54 6.347a1.125 1.125 0 0 1-1.667-.986V5.653Z" />
    </symbol>


  </defs>
</svg>